<?xml version="1.0" standalone="no"?><!DOCTYPE svg PUBLIC "-//W3C//DTD SVG 1.1//EN" "http://www.w3.org/Graphics/SVG/1.1/DTD/svg11.dtd"><svg t="1755959179681" class="icon" viewBox="0 0 1024 1024" version="1.1" xmlns="http://www.w3.org/2000/svg" p-id="14023" xmlns:xlink="http://www.w3.org/1999/xlink" width="200" height="200"><path d="M1024 301.18v120.46h-60.24v542.12h-60.24V1024H120.48v-60.24H60.24V421.64H0v-120.46h60.24v-60.24h180.7V180.7H180.7V60.24h60.24V0h180.7v60.24h60.24v60.24h60.24V60.24h60.24V0h180.7v60.24h60.24v120.46h-60.24v60.24h180.7v60.24z" p-id="14024"></path><path d="M662.58 301.18h60.24v60.24h-60.24zM542.12 120.48h60.24v60.22h-60.24zM481.88 180.7h60.24v60.24h-60.24zM421.64 120.48h60.24v60.22h-60.24zM301.18 301.18h60.24v60.24h-60.24zM421.64 60.24v60.24h-120.46l-30.12 30.11-30.12-30.11V60.24z" fill="#FFD944" p-id="14025"></path><path d="M783.06 60.24v60.24l-30.12 30.11-30.12-30.11h-120.46V60.24zM783.06 361.42v240.94l-30.12 28.526-30.12-28.526V361.42zM240.94 361.42h60.24v240.94l-30.12 28.526-30.12-28.526z" fill="#FFD944" p-id="14026"></path><path d="M873.41 932.222H150.59v-186.444L180.7 722.82h60.24v60.24h60.24v-60.24h60.22l0.02-240.94 30.11-30.12h240.94l30.11 30.12 0.02 240.94h60.22v60.24h60.24v-60.24h60.24l30.11 30.12z" fill="#FFE8CB" p-id="14027"></path><path d="M662.58 662.58v120.48h-60.22v60.24h-60.24v60.22h-60.24v-60.22h-60.24v-60.24h-60.22v-120.48h60.22v-60.22h180.72v60.22z" fill="#952A3A" p-id="14028"></path><path d="M602.36 722.82v60.24h-60.24v60.24h-60.24v-60.24h-60.24v-60.24l30.828-30.828 29.412 30.828h60.24l30.12-30.12z" fill="#FF6379" p-id="14029"></path><path d="M60.24 301.18h180.7v60.24H180.7l-30.11 30.11H90.738L60.24 361.42zM963.76 301.18v60.24l-32.026 30.11h-58.324L843.3 361.42h-60.24v-60.24zM602.36 361.42l-28.662 36.012h-120.062L421.64 361.42v-60.24h180.72z" fill="#FF6379" p-id="14030"></path><path d="M602.36 180.7h120.46v60.24h-120.46zM301.18 180.7h120.46v60.24h-120.46z" fill="#FF9000" p-id="14031"></path><path d="M240.94 602.36h60.24v120.46h-60.24zM240.94 120.48h60.24v60.22h-60.24zM722.82 120.48h60.24v60.22h-60.24zM722.82 602.36h60.24v120.46h-60.24z" fill="#FF9000" p-id="14032"></path><path d="M542.12 662.58h60.24v60.24h-60.24zM421.64 662.58h60.24v60.24h-60.24z" fill="#FFA6B2" p-id="14033"></path><path d="M963.76 361.42v60.22h-60.24l-30.11 30.12-30.11-30.12v-60.22zM180.7 361.42v60.22l-30.11 30.12-30.11-30.12H60.24v-60.22zM662.58 361.42v60.22l-30.036 30.12H391.53l-30.11-30.12v-60.22z" fill="#C73C50" p-id="14034"></path><path d="M361.42 542.12v-60.24l30.11-30.12h241.014l30.036 30.12v60.24z" fill="#ECC372" p-id="14035"></path><path d="M903.52 481.88v481.88H120.48V481.88l30.11-30.12 30.11 30.12v421.64h662.6V481.88l30.11-30.12z" fill="#ECC372" p-id="14036"></path><path d="M843.3 421.64h60.22v60.24h-60.22zM120.48 421.64h60.22v60.24H120.48zM361.42 421.64h301.16v60.24H361.42z" fill="#6E1F2A" p-id="14037"></path></svg>