<?xml version="1.0" standalone="no"?><!DOCTYPE svg PUBLIC "-//W3C//DTD SVG 1.1//EN" "http://www.w3.org/Graphics/SVG/1.1/DTD/svg11.dtd"><svg t="1755958402484" class="icon" viewBox="0 0 1024 1024" version="1.1" xmlns="http://www.w3.org/2000/svg" p-id="11733" xmlns:xlink="http://www.w3.org/1999/xlink" width="200" height="200"><path d="M128 528h608v448H128z" fill="#1EC0FF" p-id="11734"></path><path d="M736 896v80H128V528h96v240a128 128 0 0 0 128 128V528h192v240a128 128 0 0 0 128 128z" fill="#299CFC" p-id="11735"></path><path d="M643.808 800.704l19.776 40.08 44.224 6.432-32 31.184 7.552 44.048-39.552-20.8-39.552 20.8 7.552-44.048-32-31.184 44.224-6.432zM560 592l19.776 40.08 44.224 6.416-32 31.2 7.552 44.048-39.552-20.8-39.552 20.8 7.552-44.048-32-31.2 44.224-6.416zM208 560l19.776 40.08 44.224 6.416-32 31.2 7.552 44.048-39.552-20.8-39.552 20.8 7.552-44.048-32-31.2 44.224-6.416z" fill="#F9D423" p-id="11736"></path><path d="M208 848l19.776 40.08 44.224 6.416-32 31.2 7.552 44.048-39.552-20.8-39.552 20.8 7.552-44.048-32-31.2 44.224-6.416z" fill="#F9B53D" p-id="11737"></path><path d="M350.192 702.192l19.776 40.08 44.224 6.432-32 31.184 7.568 44.048-39.568-20.8-39.552 20.8 7.552-44.048-32-31.184 44.224-6.432z" fill="#F9D423" p-id="11738"></path><path d="M736 569.008V528h-71.04z" fill="#299CFC" p-id="11739"></path><path d="M683.36 922.4l-39.52-20.8-39.52 20.8 7.2-41.76A126.192 126.192 0 0 0 672 896h6.88zM544 624.32v77.12l-23.52 12.32 7.52-44-32-31.2 44.16-6.56zM224 592.32v77.12l-16-8.48-39.52 20.8 7.52-44-32-31.2 44.16-6.56L208 560zM382.24 779.84l7.52 44.16L352 804.16v-98.4l17.92 36.48 44.32 6.4z" fill="#F9B53D" p-id="11740"></path><path d="M384 528h96v448h-96z" fill="#FF8B7B" p-id="11741"></path><path d="M480 928v48h-96V528h48v352a48 48 0 0 0 48 48zM235.184 137.008l193.984 112 32-55.424-177.984-139.712 3.712 57.568z" fill="#FF6464" p-id="11742"></path><path d="M235.2 137.008l193.984 112 32-55.424-91.2-71.488a47.616 47.616 0 0 1-55.376 5.344l-27.712-16z" fill="#DB3056" p-id="11743"></path><path d="M555.024 63.024a112 112 0 0 1 40.992 152.976l-24 41.6-55.424-32 24-41.6a48 48 0 1 0-65.6 17.6l166.272 96-32 55.424-166.272-96a112 112 0 0 1 112-193.984z" fill="#FF8B7B" p-id="11744"></path><path d="M402.032 104a111.904 111.904 0 0 0 40.992 152.992l166.272 96 32-55.424-110.848-64a80.144 80.144 0 0 1-71.424-4.288l-13.856-8 0.24-0.416a103.504 103.504 0 0 1-36.608-126.976 76.448 76.448 0 0 0-6.768 10.112z" fill="#FF6464" p-id="11745"></path><path d="M527.152 121.2a47.808 47.808 0 0 1 13.44 62.816l-24 41.6 27.712 16 8-13.856a79.392 79.392 0 0 0-25.152-106.528zM928 537.008l-193.984-112 32-55.424L976 453.872l-51.712 25.568z" fill="#FF6464" p-id="11746"></path><path d="M928 537.008l-193.984-112 32-55.424L873.6 412.8a47.6 47.6 0 0 0 23.056 50.624l27.712 16z" fill="#DB3056" p-id="11747"></path><path d="M832.16 223.024a112 112 0 0 0-153.008 40.976l-24 41.6 55.424 32 24-41.6a48 48 0 1 1 17.6 65.6l-166.288-96-32 55.424 166.288 96a112 112 0 0 0 112-193.984z" fill="#FF8B7B" p-id="11748"></path><path d="M873.152 376a111.904 111.904 0 0 1-152.992 40.992l-166.288-96 32-55.424 110.848 64a80.192 80.192 0 0 0 39.44 59.712l13.856 8 0.24-0.416a103.472 103.472 0 0 0 128.272-31.792 75.2 75.2 0 0 1-5.376 10.928z" fill="#FF6464" p-id="11749"></path><path d="M276.752 160.992l609.664 352-48 83.136-609.664-352z" fill="#A3DAFF" p-id="11750"></path><path d="M831.008 481.008a48 48 0 0 1-65.6 17.6l-249.424-144 24-41.6-27.712-16-24 41.6L252.8 202.576l-24 41.6 609.68 352 48-83.2z" fill="#1EC0FF" p-id="11751"></path><path d="M623.152 361.008l-83.2-48 40-69.28a48 48 0 0 1 65.6-17.6 48 48 0 0 1 17.6 65.6z" fill="#FF8B7B" p-id="11752"></path><path d="M540 312.992l83.152 48-48 83.136-83.136-48z" fill="#FF8B7B" p-id="11753"></path><path d="M795.696 276.24a47.824 47.824 0 0 0-61.12 19.776l-24 41.6-27.712-16 8-13.856a79.424 79.424 0 0 1 104.832-31.488zM639.152 333.296l-16 27.712-83.2-48 40-69.28a48 48 0 0 1 65.6-17.6 16.96 16.96 0 0 1 2.416 1.6 43.376 43.376 0 0 0-10.416 12.272l-16 27.712a48 48 0 0 0 17.6 65.584z" fill="#FF6464" p-id="11754"></path><path d="M544.288 241.6l27.712 16-32 55.408-27.712-16z" fill="#DB3056" p-id="11755"></path><path d="M591.152 416.448l-16 27.712-83.2-48 48-83.2 41.6 24-8 13.856a48 48 0 0 0 17.6 65.632z" fill="#FF6464" p-id="11756"></path><path d="M81.824 240l39.088 26.096 43.648-17.408-12.752 45.232 30.048 36.144-46.96 1.856-25.088 39.728-16.272-44.08L48 315.984l36.896-29.104z" fill="#F9D423" p-id="11757"></path><path d="M272 480a16 16 0 0 1-10.224-3.696l-96-80a16 16 0 0 1 20.48-24.608l96 80A16 16 0 0 1 272 480zM352 480a16 16 0 0 1-12.8-6.4l-96-128a16 16 0 1 1 25.6-19.2l96 128A16 16 0 0 1 352 480zM432 480a16 16 0 0 1-13.328-7.12l-32-48a16 16 0 0 1 26.624-17.76l32 48A16 16 0 0 1 432 480zM176 480a16.4 16.4 0 0 1-3.904-0.48l-64-16a16 16 0 0 1 7.776-31.04l64 16A16 16 0 0 1 176 480z" fill="#EDE574" p-id="11758"></path><path d="M144 192m-16 0a16 16 0 1 0 32 0 16 16 0 1 0-32 0Z" fill="#EDE574" p-id="11759"></path><path d="M64 432m-16 0a16 16 0 1 0 32 0 16 16 0 1 0-32 0Z" fill="#EDE574" p-id="11760"></path><path d="M64 160m-16 0a16 16 0 1 0 32 0 16 16 0 1 0-32 0Z" fill="#EDE574" p-id="11761"></path><path d="M176 144m-16 0a16 16 0 1 0 32 0 16 16 0 1 0-32 0Z" fill="#EDE574" p-id="11762"></path><path d="M112 80m-16 0a16 16 0 1 0 32 0 16 16 0 1 0-32 0Z" fill="#EDE574" p-id="11763"></path></svg>