<?xml version="1.0" standalone="no"?><!DOCTYPE svg PUBLIC "-//W3C//DTD SVG 1.1//EN" "http://www.w3.org/Graphics/SVG/1.1/DTD/svg11.dtd"><svg t="1755959187439" class="icon" viewBox="0 0 1024 1024" version="1.1" xmlns="http://www.w3.org/2000/svg" p-id="14189" xmlns:xlink="http://www.w3.org/1999/xlink" width="200" height="200"><path d="M963.76 421.64v-60.22H421.64v-60.24h60.24v-60.24h60.24V180.7h60.24V120.48h60.22V60.24h-60.22V0h-120.48v60.24h-60.24v60.24h-60.22V0h-120.48v60.24H180.7v120.46H60.24v60.24H0v120.48h120.48v60.22H60.24v60.24H0v120.48h60.24v60.22h60.24v-60.22h60.22v-60.24h60.24v421.64h60.24V1024h662.58v-60.24H1024V421.64z" p-id="14190"></path><path d="M843.3 180.7h60.22v60.24h-60.22zM722.82 120.48h60.24v60.22h-60.24zM602.36 240.94h60.22v60.24h-60.22z" fill="#FFC906" p-id="14191"></path><path d="M722.82 421.64h240.94v542.12H722.82zM481.88 60.24v60.24h-60.24v60.22h-60.22v120.48h60.22v-60.24h60.24V180.7h60.24V120.48h60.24V60.24zM301.18 421.64h240.94v542.12H301.18zM180.7 361.42v60.22H120.48v60.24H60.24v120.48h60.24v-60.24h60.22v-60.24h60.24v-60.24h60.24v-60.22z" fill="#00A8E1" p-id="14192"></path><path d="M602.36 421.64h60.22v542.12h-60.22zM240.94 301.18v60.24h120.48v-120.48h-60.24v60.24zM301.18 60.24h-60.24v180.7h60.24V180.7h60.24V120.48h-60.24zM60.24 240.94v60.24h60.24v60.24h60.22v-60.24h60.24v-60.24z" fill="#EB7199" p-id="14193"></path><path d="M903.52 421.64v481.88h-60.22v60.24h120.46V421.64zM481.88 60.24v120.46h60.24V120.48h60.24V60.24z" fill="#0D74C9" p-id="14194"></path></svg>