<?xml version="1.0" standalone="no"?><!DOCTYPE svg PUBLIC "-//W3C//DTD SVG 1.1//EN" "http://www.w3.org/Graphics/SVG/1.1/DTD/svg11.dtd"><svg t="1755959141445" class="icon" viewBox="0 0 1024 1024" version="1.1" xmlns="http://www.w3.org/2000/svg" p-id="11915" xmlns:xlink="http://www.w3.org/1999/xlink" width="200" height="200"><path d="M980.42 685.74h-192.52c11.28-11.72 18.26-27.64 18.26-45.16V292.4c20.24-5.32 36.42-20.86 42.62-40.76a60.56 60.56 0 0 0 2.74-18.06c0-33.54-27.3-60.84-60.84-60.84H582.4c8.36-17.14 16.76-31.18 33.96-34.28 15.68-2.82 26.48-12.06 28.88-24.72 2.6-13.64-5.06-28.2-19.5-37.12-10.66-6.6-49.54-24-111.66 20.5-62.1-44.48-100.98-27.1-111.66-20.5-14.42 8.92-22.08 23.48-19.48 37.12 2.4 12.66 13.2 21.9 28.86 24.72 17.04 3.06 27.62 16.24 37.52 34.28H237.48c-33.54 0-60.82 27.3-60.82 60.84 0 1.02 0.02 2.06 0.08 3.08l0.06 0.84c0.04 0.72 0.1 1.42 0.16 2.14 0.06 0.52 0.12 1.02 0.2 1.54 0.04 0.46 0.1 0.92 0.16 1.36 0.1 0.66 0.22 1.3 0.34 1.94 0.06 0.3 0.1 0.62 0.16 0.92 0.14 0.74 0.32 1.46 0.48 2.18 0.06 0.2 0.1 0.42 0.14 0.62a81.228 81.228 0 0 0 0.76 2.76c0.24 0.82 0.52 1.64 0.8 2.46 0.02 0.08 0.04 0.14 0.08 0.22 0.3 0.86 0.62 1.7 0.96 2.54 0 0.04 0.02 0.06 0.02 0.08a61.22 61.22 0 0 0 18.18 24.58c0.02 0 0.04 0.02 0.06 0.04 0.7 0.56 1.42 1.14 2.16 1.68 0.04 0.02 0.08 0.04 0.1 0.06 0.72 0.54 1.46 1.06 2.2 1.56l0.18 0.12c0.74 0.48 1.46 0.94 2.2 1.38 0.08 0.06 0.16 0.1 0.22 0.14 1.86 1.1 3.76 2.1 5.74 3.02 0.56 0.26 1.1 0.52 1.66 0.76 0.34 0.12 0.66 0.26 1 0.38 0.56 0.24 1.14 0.48 1.72 0.68 0.36 0.14 0.72 0.26 1.08 0.38 0.56 0.2 1.12 0.4 1.7 0.58 0.38 0.12 0.78 0.22 1.18 0.34 0.54 0.16 1.08 0.32 1.64 0.46 0.44 0.12 0.88 0.22 1.32 0.32l0.7 0.18v347.66c0 17.52 6.96 33.44 18.26 45.16H43.58c-5.52 0-10 4.48-10 10v250.64c0 5.52 4.48 10 10 10h936.84c5.52 0 10-4.48 10-10V695.74c0-5.52-4.48-10-10-10zM415.34 118.78c-7.3-1.32-11.94-4.52-12.76-8.78-0.84-4.44 2.04-11.22 10.36-16.38 17.04-10.52 50.98-9.78 95.08 23.88a10.02 10.02 0 0 0 12.14 0c44.1-33.66 78.04-34.4 95.08-23.88 8.32 5.16 11.2 11.94 10.36 16.38-0.82 4.26-5.48 7.46-12.78 8.78-29.42 5.3-41.18 30-51.56 51.8-0.34 0.72-0.7 1.44-1.04 2.16h-88.28c-10.94-21.86-26.3-48.5-56.6-53.96z m-178.18 155.62c-1.04-0.02-2.06-0.08-3.06-0.16-0.7-0.06-1.4-0.14-2.08-0.24a33.6 33.6 0 0 1-3.9-0.72c-0.64-0.16-1.3-0.32-1.94-0.5-0.62-0.18-1.22-0.38-1.84-0.58-0.62-0.22-1.26-0.44-1.88-0.7-0.6-0.22-1.18-0.48-1.76-0.74a47.82 47.82 0 0 1-3.46-1.78c-0.56-0.32-1.1-0.64-1.62-0.98-0.56-0.36-1.12-0.74-1.68-1.12-0.48-0.34-0.94-0.7-1.42-1.06-0.56-0.44-1.1-0.88-1.64-1.34-0.4-0.36-0.82-0.72-1.22-1.1-0.54-0.52-1.08-1.02-1.58-1.56a41.552 41.552 0 0 1-2.54-2.9c-0.3-0.38-0.58-0.76-0.86-1.14-0.48-0.66-0.96-1.3-1.4-1.98-0.24-0.38-0.48-0.78-0.72-1.18-0.42-0.7-0.84-1.4-1.22-2.14-0.22-0.4-0.4-0.82-0.6-1.24-0.36-0.74-0.72-1.48-1.04-2.24-0.18-0.46-0.34-0.94-0.52-1.42-0.26-0.72-0.54-1.46-0.78-2.22-0.16-0.56-0.28-1.14-0.44-1.72-0.18-0.7-0.36-1.36-0.5-2.06-0.16-0.78-0.26-1.58-0.36-2.38-0.08-0.52-0.18-1.02-0.24-1.56-0.12-1.32-0.2-2.68-0.2-4.06 0-22.52 18.32-40.84 40.84-40.84h553.18c22.52 0 40.82 18.32 40.82 40.84 0 4.22-0.64 8.3-1.82 12.12-5.18 16.62-20.7 28.7-39 28.7H237.16z m549 20v346.18c0 24.88-20.22 45.12-45.1 45.16h-166.54V294.4h211.64z m-231.64 0v391.34h-78.8V294.4h78.8z m-98.8 0v391.34h-166.54c-24.86-0.04-45.08-20.28-45.08-45.16V294.4h211.62zM207.02 936.38H53.58v-159.44h153.44v159.44z m103.12 0h-83.12v-159.44h83.12v159.44z m383.72 0H330.14v-159.44h363.72v159.44z m103.12 0h-83.12v-159.44h83.12v159.44z m173.44 0h-153.44v-159.44h153.44v159.44z m0-179.44H53.58v-51.2h235.6c0.04 0 0.06 0.02 0.08 0.02h451.72c0.04 0 0.06-0.02 0.08-0.02h229.36v51.2z" fill="#23130D" p-id="11916"></path><path d="M625.6 110c-0.82 4.26-5.48 7.46-12.78 8.78-29.42 5.3-41.18 30-51.56 51.8-0.34 0.72-0.7 1.44-1.04 2.16h-88.28c-10.94-21.86-26.3-48.5-56.6-53.96-7.3-1.32-11.94-4.52-12.76-8.78-0.84-4.44 2.04-11.22 10.36-16.38 17.04-10.52 50.98-9.78 95.08 23.88a10.02 10.02 0 0 0 12.14 0c44.1-33.66 78.04-34.4 95.08-23.88 8.32 5.16 11.2 11.94 10.36 16.38z" fill="#636368" p-id="11917"></path><path d="M625.6 110c-0.76 3.98-4.88 7.04-11.38 8.5-17.36-9.86-50.82-8.5-94.06 24.5a10.02 10.02 0 0 1-12.14 0c-43.24-33-76.7-34.36-94.06-24.48-6.5-1.48-10.62-4.54-11.38-8.52-0.84-4.44 2.04-11.22 10.36-16.38 17.04-10.52 50.98-9.78 95.08 23.88a10.02 10.02 0 0 0 12.14 0c44.1-33.66 78.04-34.4 95.08-23.88 8.32 5.16 11.2 11.94 10.36 16.38z" opacity=".2" p-id="11918"></path><path d="M831.5 233.58c0 4.22-0.64 8.3-1.82 12.12-5.18 16.62-20.7 28.7-39 28.7H237.16c-1.04-0.02-2.06-0.08-3.06-0.16-0.7-0.06-1.4-0.14-2.08-0.24a33.6 33.6 0 0 1-3.9-0.72c-0.64-0.16-1.3-0.32-1.94-0.5-0.62-0.18-1.22-0.38-1.84-0.58-0.62-0.22-1.26-0.44-1.88-0.7-0.6-0.22-1.18-0.48-1.76-0.74a47.82 47.82 0 0 1-3.46-1.78c-0.56-0.32-1.1-0.64-1.62-0.98-0.56-0.36-1.12-0.74-1.68-1.12-0.48-0.34-0.94-0.7-1.42-1.06-0.56-0.44-1.1-0.88-1.64-1.34-0.4-0.36-0.82-0.72-1.22-1.1-0.54-0.52-1.08-1.02-1.58-1.56a41.552 41.552 0 0 1-2.54-2.9c-0.3-0.38-0.58-0.76-0.86-1.14-0.48-0.66-0.96-1.3-1.4-1.98-0.24-0.38-0.48-0.78-0.72-1.18-0.42-0.7-0.84-1.4-1.22-2.14-0.22-0.4-0.4-0.82-0.6-1.24-0.36-0.74-0.72-1.48-1.04-2.24-0.18-0.46-0.34-0.94-0.52-1.42-0.26-0.72-0.54-1.46-0.78-2.22-0.16-0.56-0.28-1.14-0.44-1.72-0.18-0.7-0.36-1.36-0.5-2.06-0.16-0.78-0.26-1.58-0.36-2.38-0.08-0.52-0.18-1.02-0.24-1.56-0.12-1.32-0.2-2.68-0.2-4.06 0-22.52 18.32-40.84 40.84-40.84h553.18c22.52 0 40.82 18.32 40.82 40.84z" fill="#E1E1E5" p-id="11919"></path><path d="M831.5 233.58c0 4.22-0.64 8.3-1.82 12.12-5.18 16.62-20.7 28.7-39 28.7H237.16c-1.04-0.02-2.06-0.08-3.06-0.16-0.7-0.06-1.4-0.14-2.08-0.24a33.6 33.6 0 0 1-3.9-0.72c-0.64-0.16-1.3-0.32-1.94-0.5-0.62-0.18-1.22-0.38-1.84-0.58-0.62-0.22-1.26-0.44-1.88-0.7-0.6-0.22-1.18-0.48-1.76-0.74a47.82 47.82 0 0 1-3.46-1.78c-0.56-0.32-1.1-0.64-1.62-0.98-0.56-0.36-1.12-0.74-1.68-1.12-0.48-0.34-0.94-0.7-1.42-1.06-0.56-0.44-1.1-0.88-1.64-1.34-0.4-0.36-0.82-0.72-1.22-1.1-0.54-0.52-1.08-1.02-1.58-1.56a41.552 41.552 0 0 1-2.54-2.9c-0.3-0.38-0.58-0.76-0.86-1.14-0.48-0.66-0.96-1.3-1.4-1.98-0.24-0.38-0.48-0.78-0.72-1.18-0.42-0.7-0.84-1.4-1.22-2.14-0.22-0.4-0.4-0.82-0.6-1.24-0.36-0.74-0.72-1.48-1.04-2.24-0.18-0.46-0.34-0.94-0.52-1.42-0.26-0.72-0.54-1.46-0.78-2.22-0.16-0.56-0.28-1.14-0.44-1.72-0.18-0.7-0.36-1.36-0.5-2.06-0.16-0.78-0.26-1.58-0.36-2.38-0.08-0.52-0.18-1.02-0.24-1.56-0.12-1.32-0.2-2.68-0.2-4.06 0-4.06 0.6-7.98 1.72-11.68 0 0.04 0 0.08 0.02 0.12 0.24 0.76 0.52 1.5 0.78 2.22 0.18 0.48 0.34 0.96 0.52 1.42 0.32 0.76 0.68 1.5 1.04 2.24 0.2 0.42 0.38 0.84 0.6 1.24 0.38 0.74 0.8 1.44 1.22 2.14 0.24 0.4 0.48 0.8 0.72 1.18 0.44 0.68 0.92 1.32 1.4 1.98 0.28 0.38 0.56 0.76 0.86 1.14a41.552 41.552 0 0 0 2.54 2.9c0.5 0.54 1.04 1.04 1.58 1.56 0.4 0.38 0.82 0.74 1.22 1.1 0.54 0.46 1.08 0.9 1.64 1.34 0.48 0.36 0.94 0.72 1.42 1.06 0.56 0.38 1.12 0.76 1.68 1.12 0.52 0.34 1.06 0.66 1.62 0.98a45.948 45.948 0 0 0 3.46 1.78c0.58 0.26 1.16 0.52 1.76 0.74 0.62 0.26 1.26 0.48 1.88 0.7 0.62 0.2 1.22 0.4 1.84 0.58 0.64 0.18 1.3 0.34 1.94 0.5a33.6 33.6 0 0 0 3.9 0.72c0.68 0.1 1.38 0.18 2.08 0.24 1 0.08 2.02 0.14 3.06 0.16h553.52c18.3 0 33.82-12.08 39-28.7l0.12-0.42c1.1 3.68 1.7 7.6 1.7 11.64z" opacity=".2" p-id="11920"></path><path d="M831.5 233.58c0 4.06-0.6 8-1.7 11.7-5.02-16.88-20.64-29.2-39.12-29.2H237.5c-18.46 0-34.1 12.3-39.12 29.16-0.16-0.52-0.28-1.06-0.42-1.6-0.18-0.7-0.36-1.36-0.5-2.06-0.16-0.78-0.26-1.58-0.36-2.38-0.08-0.52-0.18-1.02-0.24-1.56-0.12-1.32-0.2-2.68-0.2-4.06 0-22.52 18.32-40.84 40.84-40.84h553.18c22.52 0 40.82 18.32 40.82 40.84z" fill="#FFFFFF" opacity=".7" p-id="11921"></path><path d="M816.98 776.94h153.44v159.44h-153.44z" fill="#F9C139" p-id="11922"></path><path d="M713.86 776.94h83.12v159.44h-83.12z" fill="#636368" p-id="11923"></path><path d="M786.16 294.4v346.18c0 9.16-2.74 17.7-7.46 24.82a45 45 0 0 1-15.5 14.48c-4.28 2.44-9 4.2-14.02 5.1-2.64 0.5-5.34 0.76-8.12 0.76h-166.54V294.4h211.64z" fill="#EC7063" p-id="11924"></path><path d="M475.72 294.4h78.8v391.34h-78.8z" fill="#636368" p-id="11925"></path><path d="M455.72 294.4v391.34h-166.54c-5.02 0-9.86-0.84-14.36-2.38-5.16-1.74-9.9-4.38-14.02-7.74-7.62-6.2-13.2-14.86-15.5-24.74-0.78-3.3-1.2-6.76-1.2-10.3V294.4h211.62z" fill="#EC7063" p-id="11926"></path><path d="M970.42 705.74v51.2H53.58v-51.2h235.6c0.04 0 0.06 0.02 0.08 0.02h451.72c0.04 0 0.06-0.02 0.08-0.02h229.36z" fill="#E1E1E5" p-id="11927"></path><path d="M970.42 705.74v19.26H53.58v-19.26h235.6c0.04 0 0.06 0.008 0.08 0.008h451.72c0.04 0 0.06-0.008 0.08-0.008h229.36z" opacity=".2" p-id="11928"></path><path d="M53.58 776.94h153.44v159.44H53.58z" fill="#F9C139" p-id="11929"></path><path d="M227.02 776.94h83.12v159.44h-83.12z" fill="#636368" p-id="11930"></path><path d="M330.14 776.94h363.72v159.44H330.14z" fill="#F9C139" p-id="11931"></path><path d="M960.42 786.94v139.44h-133.44v-139.44h133.44m10-10h-153.44v159.44h153.44v-159.44zM776.16 304.4v336.18c0 6.904-2.004 13.576-5.816 19.324a35.118 35.118 0 0 1-12.098 11.288 34.048 34.048 0 0 1-10.928 3.962 33.744 33.744 0 0 1-6.26 0.586h-156.54V304.4h191.642m10-10H574.52v391.34h166.54c2.78 0 5.48-0.26 8.12-0.76 5.02-0.9 9.74-2.66 14.02-5.1a45 45 0 0 0 15.5-14.48c4.72-7.12 7.46-15.66 7.46-24.82V294.4zM445.72 304.4v371.34h-156.54a34.34 34.34 0 0 1-11.164-1.856 34.73 34.73 0 0 1-10.904-6.022 35.314 35.314 0 0 1-12.08-19.284 34.844 34.844 0 0 1-0.932-8V304.4h191.62m10-10H244.1v346.18c0 3.54 0.42 7 1.2 10.3 2.3 9.88 7.88 18.54 15.5 24.74 4.12 3.36 8.86 6 14.02 7.74 4.5 1.54 9.34 2.38 14.36 2.38h166.54V294.4zM197.02 786.94v139.44H63.58v-139.44h133.44m10-10H53.58v159.44h153.44v-159.44zM683.86 786.94v139.44H340.14v-139.44h343.72m10-10H330.14v159.44h363.72v-159.44z" opacity=".2" p-id="11932"></path><path d="M61.3 776.94h15.5v159.44h-15.5zM91.96 776.94h15.52v159.44h-15.52zM122.64 776.94h15.5v159.44h-15.5zM153.3 776.94h15.5v159.44h-15.5zM183.96 776.94h15.52v159.44h-15.52zM260.8 294.4v381.22c-7.62-6.2-13.2-14.86-15.5-24.74V294.4h15.5z" fill="#FFFFFF" opacity=".2" p-id="11933"></path><path d="M290.32 294.4v391.34h-1.14c-5.02 0-9.86-0.84-14.36-2.38V294.4h15.5zM305.48 294.4h15.52v391.34h-15.52zM336.16 294.4h15.5v391.34h-15.5zM336.16 776.94h15.5v159.44h-15.5zM366.82 294.4h15.5v391.34h-15.5zM366.82 776.94h15.5v159.44h-15.5zM397.48 294.4h15.52v391.34h-15.52zM397.48 776.94h15.52v159.44h-15.52zM428.16 294.4h15.5v391.34h-15.5zM428.16 776.94h15.5v159.44h-15.5zM458.82 776.94h15.5v159.44h-15.5zM489.48 776.94h15.52v159.44h-15.52z" fill="#FFFFFF" opacity=".2" p-id="11934"></path><path d="M519 776.94h15.52v159.44h-15.52zM549.68 776.94h15.5v159.44h-15.5zM580.34 294.4h15.5v391.34h-15.5zM580.34 776.94h15.5v159.44h-15.5zM611 294.4h15.52v391.34h-15.52zM611 776.94h15.52v159.44h-15.52zM641.68 294.4h15.5v391.34h-15.5zM641.68 776.94h15.5v159.44h-15.5zM672.34 294.4h15.5v391.34h-15.5zM672.34 776.94h15.5v159.44h-15.5zM703 294.4h15.52v391.34h-15.52zM749.18 294.4v390.58c-2.64 0.5-5.34 0.76-8.12 0.76h-7.38V294.4h15.5z" fill="#FFFFFF" opacity=".2" p-id="11935"></path><path d="M778.7 294.4v371a45 45 0 0 1-15.5 14.48V294.4h15.5zM824.52 776.94h15.52v159.44h-15.52zM855.2 776.94h15.5v159.44h-15.5zM885.86 776.94h15.5v159.44h-15.5zM916.52 776.94h15.52v159.44h-15.52zM947.2 776.94h15.5v159.44h-15.5z" fill="#FFFFFF" opacity=".2" p-id="11936"></path><path d="M793.2 936.38h-33.36l-45.98-45.96v-33.4zM796.98 901.54v25.64l-83.12-83.12v-25.64zM796.98 832.18v42.64l-83.12-83.12v-14.76h27.88z" fill="#FFFFFF" opacity=".3" p-id="11937"></path><path d="M306.36 936.38H273l-45.98-45.96v-33.4zM310.14 901.54v25.64l-83.12-83.12v-25.64zM310.14 832.18v42.64l-83.12-83.12v-14.76h27.88z" fill="#FFFFFF" opacity=".3" p-id="11938"></path><path d="M554.52 567.1v66.92l-78.8-78.8v-66.94zM554.52 489.64v51.44l-78.8-78.8v-51.44zM554.52 350.52v85.52l-78.8-78.8V294.4h22.68z" fill="#FFFFFF" opacity=".3" p-id="11939"></path></svg>